<svg version="1.1" viewBox="0.0 0.0 1280.0 422.3989501312336" fill="none" stroke="none" stroke-linecap="square" stroke-miterlimit="10" xmlns:xlink="http://www.w3.org/1999/xlink" xmlns="http://www.w3.org/2000/svg"><clipPath id="p1.0"><path d="m0 0l1280.0 0l0 422.39896l-1280.0 0l0 -422.39896z" clip-rule="nonzero"/></clipPath><g clip-path="url(#p1.0)"><path fill="#ffffff" d="m0 0l1280.0 0l0 422.39896l-1280.0 0z" fill-rule="evenodd"/><path fill="#e7e6e6" d="m5.933079 211.19948l0 0c0 -65.787125 53.338047 -119.11811 119.133865 -119.11811l0 0c31.596268 0 61.898422 12.549904 84.24036 34.888885c22.341934 22.338982 34.893494 52.63714 34.893494 84.229225l0 0c0 65.787125 -53.338043 119.11812 -119.13385 119.11812l0 0c-65.795815 0 -119.133865 -53.330994 -119.133865 -119.11812z" fill-rule="evenodd"/><path stroke="#44546a" stroke-width="2.0" stroke-linejoin="round" stroke-linecap="butt" d="m5.933079 211.19948l0 0c0 -65.787125 53.338047 -119.11811 119.133865 -119.11811l0 0c31.596268 0 61.898422 12.549904 84.24036 34.888885c22.341934 22.338982 34.893494 52.63714 34.893494 84.229225l0 0c0 65.787125 -53.338043 119.11812 -119.13385 119.11812l0 0c-65.795815 0 -119.133865 -53.330994 -119.133865 -119.11812z" fill-rule="evenodd"/><path fill="#000000" d="m103.128136 218.11948l0 -13.359375l2.65625 0l3.15625 9.453125q0.4375 1.328125 0.640625 1.984375q0.234375 -0.734375 0.703125 -2.140625l3.203125 -9.296875l2.375 0l0 13.359375l-1.703125 0l0 -11.171875l-3.875 11.171875l-1.59375 0l-3.859375 -11.375l0 11.375l-1.703125 0zm21.712677 0l0 -1.421875q-1.125 1.640625 -3.0625 1.640625q-0.859375 0 -1.609375 -0.328125q-0.734375 -0.328125 -1.09375 -0.828125q-0.359375 -0.5 -0.5 -1.21875q-0.109375 -0.46875 -0.109375 -1.53125l0 -5.984375l1.640625 0l0 5.359375q0 1.28125 0.109375 1.734375q0.15625 0.640625 0.65625 1.015625q0.5 0.375 1.234375 0.375q0.734375 0 1.375 -0.375q0.65625 -0.390625 0.921875 -1.03125q0.265625 -0.65625 0.265625 -1.890625l0 -5.1875l1.640625 0l0 9.671875l-1.46875 0zm7.625725 -1.46875l0.234375 1.453125q-0.6875 0.140625 -1.234375 0.140625q-0.890625 0 -1.390625 -0.28125q-0.484375 -0.28125 -0.6875 -0.734375q-0.203125 -0.46875 -0.203125 -1.9375l0 -5.578125l-1.2031326 0l0 -1.265625l1.2031326 0l0 -2.390625l1.625 -0.984375l0 3.375l1.65625 0l0 1.265625l-1.65625 0l0 5.671875q0 0.6875 0.078125 0.890625q0.09375 0.203125 0.28125 0.328125q0.203125 0.109375 0.578125 0.109375q0.265625 0 0.71875 -0.0625zm12.507233 1.46875l-1.640625 0l0 -10.453125q-0.59375 0.5625 -1.5625 1.140625q-0.953125 0.5625 -1.71875 0.84375l0 -1.59375q1.375 -0.640625 2.40625 -1.5625q1.03125 -0.921875 1.453125 -1.78125l1.0625 0l0 13.40625z" fill-rule="nonzero"/><path fill="#e7e6e6" d="m322.956 211.19948l0 0c0 -65.787125 53.338043 -119.11811 119.13385 -119.11811l0 0c31.596283 0 61.898438 12.549904 84.24036 34.888885c22.341919 22.338982 34.893494 52.63714 34.893494 84.229225l0 0c0 65.787125 -53.338043 119.11812 -119.13385 119.11812l0 0c-65.79581 0 -119.13385 -53.330994 -119.13385 -119.11812z" fill-rule="evenodd"/><path stroke="#44546a" stroke-width="2.0" stroke-linejoin="round" stroke-linecap="butt" d="m322.956 211.19948l0 0c0 -65.787125 53.338043 -119.11811 119.13385 -119.11811l0 0c31.596283 0 61.898438 12.549904 84.24036 34.888885c22.341919 22.338982 34.893494 52.63714 34.893494 84.229225l0 0c0 65.787125 -53.338043 119.11812 -119.13385 119.11812l0 0c-65.79581 0 -119.13385 -53.330994 -119.13385 -119.11812z" fill-rule="evenodd"/><path fill="#000000" d="m420.15106 218.11948l0 -13.359375l2.65625 0l3.15625 9.453125q0.4375 1.328125 0.640625 1.984375q0.234375 -0.734375 0.703125 -2.140625l3.203125 -9.296875l2.375 0l0 13.359375l-1.703125 0l0 -11.171875l-3.875 11.171875l-1.59375 0l-3.859375 -11.375l0 11.375l-1.703125 0zm21.712677 0l0 -1.421875q-1.125 1.640625 -3.0625 1.640625q-0.859375 0 -1.609375 -0.328125q-0.734375 -0.328125 -1.09375 -0.828125q-0.359375 -0.5 -0.5 -1.21875q-0.109375 -0.46875 -0.109375 -1.53125l0 -5.984375l1.640625 0l0 5.359375q0 1.28125 0.109375 1.734375q0.15625 0.640625 0.65625 1.015625q0.5 0.375 1.234375 0.375q0.734375 0 1.375 -0.375q0.65625 -0.390625 0.921875 -1.03125q0.265625 -0.65625 0.265625 -1.890625l0 -5.1875l1.640625 0l0 9.671875l-1.46875 0zm7.625702 -1.46875l0.234375 1.453125q-0.6875 0.140625 -1.234375 0.140625q-0.890625 0 -1.390625 -0.28125q-0.484375 -0.28125 -0.6875 -0.734375q-0.203125 -0.46875 -0.203125 -1.9375l0 -5.578125l-1.203125 0l0 -1.265625l1.203125 0l0 -2.390625l1.625 -0.984375l0 3.375l1.65625 0l0 1.265625l-1.65625 0l0 5.671875q0 0.6875 0.078125 0.890625q0.09375 0.203125 0.28125 0.328125q0.203125 0.109375 0.578125 0.109375q0.265625 0 0.71875 -0.0625zm14.944733 -0.109375l0 1.578125l-8.828125 0q-0.015625 -0.59375 0.1875 -1.140625q0.34375 -0.90625 1.078125 -1.78125q0.75 -0.875 2.15625 -2.015625q2.171875 -1.78125 2.9375 -2.828125q0.765625 -1.046875 0.765625 -1.96875q0 -0.984375 -0.703125 -1.640625q-0.6875 -0.671875 -1.8125 -0.671875q-1.1875 0 -1.90625 0.71875q-0.703125 0.703125 -0.703125 1.953125l-1.6875 -0.171875q0.171875 -1.890625 1.296875 -2.875q1.140625 -0.984375 3.03125 -0.984375q1.921875 0 3.046875 1.0625q1.125 1.0625 1.125 2.640625q0 0.796875 -0.328125 1.578125q-0.328125 0.78125 -1.09375 1.640625q-0.75 0.84375 -2.53125 2.34375q-1.46875 1.234375 -1.890625 1.6875q-0.421875 0.4375 -0.6875 0.875l6.546875 0z" fill-rule="nonzero"/><path fill="#e7e6e6" d="m639.9789 211.19948l0 0c0 -65.787125 53.338074 -119.11811 119.13391 -119.11811l0 0c31.596252 0 61.898376 12.549904 84.24036 34.888885c22.341919 22.338982 34.893494 52.63714 34.893494 84.229225l0 0c0 65.787125 -53.338074 119.11812 -119.13385 119.11812l0 0c-65.79584 0 -119.13391 -53.330994 -119.13391 -119.11812z" fill-rule="evenodd"/><path stroke="#44546a" stroke-width="2.0" stroke-linejoin="round" stroke-linecap="butt" d="m639.9789 211.19948l0 0c0 -65.787125 53.338074 -119.11811 119.13391 -119.11811l0 0c31.596252 0 61.898376 12.549904 84.24036 34.888885c22.341919 22.338982 34.893494 52.63714 34.893494 84.229225l0 0c0 65.787125 -53.338074 119.11812 -119.13385 119.11812l0 0c-65.79584 0 -119.13391 -53.330994 -119.13391 -119.11812z" fill-rule="evenodd"/><path fill="#000000" d="m737.17395 218.11948l0 -13.359375l2.65625 0l3.15625 9.453125q0.4375 1.328125 0.640625 1.984375q0.234375 -0.734375 0.703125 -2.140625l3.203125 -9.296875l2.375 0l0 13.359375l-1.703125 0l0 -11.171875l-3.875 11.171875l-1.59375 0l-3.859375 -11.375l0 11.375l-1.703125 0zm21.712708 0l0 -1.421875q-1.125 1.640625 -3.0625 1.640625q-0.859375 0 -1.609375 -0.328125q-0.734375 -0.328125 -1.09375 -0.828125q-0.359375 -0.5 -0.5 -1.21875q-0.109375 -0.46875 -0.109375 -1.53125l0 -5.984375l1.640625 0l0 5.359375q0 1.28125 0.109375 1.734375q0.15625 0.640625 0.65625 1.015625q0.5 0.375 1.234375 0.375q0.734375 0 1.375 -0.375q0.65625 -0.390625 0.921875 -1.03125q0.265625 -0.65625 0.265625 -1.890625l0 -5.1875l1.640625 0l0 9.671875l-1.46875 0zm7.6257324 -1.46875l0.234375 1.453125q-0.6875 0.140625 -1.234375 0.140625q-0.890625 0 -1.390625 -0.28125q-0.484375 -0.28125 -0.6875 -0.734375q-0.203125 -0.46875 -0.203125 -1.9375l0 -5.578125l-1.203125 0l0 -1.265625l1.203125 0l0 -2.390625l1.625 -0.984375l0 3.375l1.65625 0l0 1.265625l-1.65625 0l0 5.671875q0 0.6875 0.078125 0.890625q0.09375 0.203125 0.28125 0.328125q0.203125 0.109375 0.578125 0.109375q0.265625 0 0.71875 -0.0625zm6.335327 -2.03125l1.71875 -0.140625q0.1875 1.25 0.875 1.890625q0.703125 0.625 1.6875 0.625q1.1875 0 2.0 -0.890625q0.828125 -0.890625 0.828125 -2.359375q0 -1.40625 -0.796875 -2.21875q-0.78125 -0.8125 -2.0625 -0.8125q-0.78125 0 -1.421875 0.359375q-0.640625 0.359375 -1.0 0.9375l-1.546875 -0.203125l1.296875 -6.859375l6.640625 0l0 1.5625l-5.328125 0l-0.71875 3.59375q1.203125 -0.84375 2.515625 -0.84375q1.75 0 2.953125 1.21875q1.203125 1.203125 1.203125 3.109375q0 1.8125 -1.046875 3.140625q-1.296875 1.625 -3.515625 1.625q-1.8125 0 -2.96875 -1.015625q-1.15625 -1.03125 -1.3125 -2.71875z" fill-rule="nonzero"/><path fill="#ffffff" d="m957.00183 211.19948l0 0c0 -65.787125 53.338013 -119.11811 119.13391 -119.11811l0 0c31.596191 0 61.898315 12.549904 84.24036 34.888885c22.341919 22.338982 34.893433 52.63714 34.893433 84.229225l0 0c0 65.787125 -53.338013 119.11812 -119.13379 119.11812l0 0c-65.7959 0 -119.13391 -53.330994 -119.13391 -119.11812z" fill-rule="evenodd"/><path stroke="#44546a" stroke-width="2.0" stroke-linejoin="round" stroke-linecap="butt" d="m957.00183 211.19948l0 0c0 -65.787125 53.338013 -119.11811 119.13391 -119.11811l0 0c31.596191 0 61.898315 12.549904 84.24036 34.888885c22.341919 22.338982 34.893433 52.63714 34.893433 84.229225l0 0c0 65.787125 -53.338013 119.11812 -119.13379 119.11812l0 0c-65.7959 0 -119.13391 -53.330994 -119.13391 -119.11812z" fill-rule="evenodd"/><path fill="#000000" d="m1068.9794 218.11948l0 -1.875l1.875 0l0 1.875l-1.875 0zm6.234375 0l0 -1.875l1.859375 0l0 1.875l-1.859375 0zm6.203125 0l0 -1.875l1.875 0l0 1.875l-1.875 0z" fill-rule="nonzero"/><path fill="#000000" fill-opacity="0.0" d="m244.20079 211.19948l78.74016 0" fill-rule="evenodd"/><path stroke="#44546a" stroke-width="2.0" stroke-linejoin="round" stroke-linecap="butt" d="m244.20079 211.19948l66.74016 0" fill-rule="evenodd"/><path fill="#44546a" stroke="#44546a" stroke-width="2.0" stroke-linecap="butt" d="m310.94095 214.50294l9.076202 -3.3034668l-9.076202 -3.3034668z" fill-rule="evenodd"/><path fill="#000000" fill-opacity="0.0" d="m561.1935 211.19678l78.834656 0" fill-rule="evenodd"/><path stroke="#44546a" stroke-width="2.0" stroke-linejoin="round" stroke-linecap="butt" d="m561.1935 211.1968l66.834656 0" fill-rule="evenodd"/><path fill="#44546a" stroke="#44546a" stroke-width="2.0" stroke-linecap="butt" d="m628.02814 214.50026l9.076172 -3.3034668l-9.076172 -3.3034668z" fill-rule="evenodd"/><path fill="#000000" fill-opacity="0.0" d="m878.2085 211.19678l78.834656 0" fill-rule="evenodd"/><path stroke="#44546a" stroke-width="2.0" stroke-linejoin="round" stroke-linecap="butt" d="m878.2085 211.1968l66.834656 0" fill-rule="evenodd"/><path fill="#44546a" stroke="#44546a" stroke-width="2.0" stroke-linecap="butt" d="m945.04315 214.50026l9.076172 -3.3034668l-9.076172 -3.3034668z" fill-rule="evenodd"/><path fill="#000000" fill-opacity="0.0" d="m1195.2314 211.19678l78.834595 0" fill-rule="evenodd"/><path stroke="#44546a" stroke-width="2.0" stroke-linejoin="round" stroke-linecap="butt" d="m1195.2314 211.1968l66.83472 0" fill-rule="evenodd"/><path fill="#44546a" stroke="#44546a" stroke-width="2.0" stroke-linecap="butt" d="m1262.0662 214.50026l9.076172 -3.3034668l-9.076172 -3.3034668z" fill-rule="evenodd"/></g></svg>